<svg version="1.1" id="Layer_1" xmlns="http://www.w3.org/2000/svg" xmlns:xlink="http://www.w3.org/1999/xlink" x="0px" y="0px"
	 width="100%" viewBox="0 0 390 302" enable-background="new 0 0 390 302" xml:space="preserve">
<path fill="#FDFDFD" opacity="1.000000" stroke="none" 
	d="
M236.000000,303.000000 
	C157.333344,303.000000 79.166695,303.000000 1.000031,303.000000 
	C1.000021,202.333359 1.000021,101.666733 1.000010,1.000072 
	C130.999954,1.000048 260.999908,1.000048 390.999878,1.000024 
	C390.999939,101.666595 390.999939,202.333191 390.999969,302.999878 
	C339.500000,303.000000 288.000000,303.000000 236.000000,303.000000 
M246.446655,140.869659 
	C247.322006,139.422806 248.404526,138.060455 249.035477,136.513885 
	C251.299942,130.963272 253.319901,125.312584 255.599930,119.768677 
	C260.682037,107.411568 265.855194,95.091843 271.012268,82.765686 
	C273.016357,77.975601 275.077087,73.209206 277.112030,68.432014 
	C277.649780,68.585968 278.187561,68.739922 278.725311,68.893875 
	C278.725311,113.543076 278.725311,158.192276 278.725311,203.391098 
	C293.215240,198.999359 307.018219,194.815811 320.881958,190.613861 
	C320.881958,150.125549 320.881958,109.762337 320.881958,69.191635 
	C310.474365,68.348732 300.463043,67.540199 290.452332,66.723625 
	C289.459808,66.642654 288.470642,66.518425 287.481018,66.404480 
	C277.390137,65.242607 267.309509,63.966923 257.195923,63.057919 
	C255.942764,62.945290 253.807587,64.488167 253.284348,65.759232 
	C250.290787,73.031219 247.791290,80.504951 244.875443,87.810974 
	C241.146210,97.155052 237.357788,106.484146 233.246292,115.663559 
	C231.036911,120.596275 231.943466,124.494202 235.350159,128.368683 
	C238.911697,132.419296 242.226837,136.686554 246.446655,140.869659 
M205.097992,244.645355 
	C205.702469,243.386215 206.362045,242.150192 206.902008,240.863968 
	C209.476532,234.731369 212.063187,228.603210 214.561447,222.439392 
	C218.064148,213.797348 221.459396,205.111771 224.961517,196.469498 
	C228.741379,187.141769 232.859833,177.940781 236.319000,168.497131 
	C238.732056,161.909378 244.230026,155.214035 236.873276,148.082886 
	C233.059097,144.385666 229.765198,140.151718 225.625656,135.469635 
	C222.307892,144.438965 219.559921,152.265594 216.524704,159.979187 
	C212.098251,171.228424 207.714417,182.508987 202.740112,193.517578 
	C201.538177,196.177582 202.467270,200.998795 197.448624,201.457504 
	C194.395233,193.376434 191.571198,185.486145 188.444366,177.717712 
	C182.768036,163.615265 176.861664,149.605515 171.162842,135.511948 
	C169.603241,131.654953 168.409729,131.242950 165.268616,134.149933 
	C157.743973,141.113693 150.288055,148.152603 142.708847,155.056274 
	C135.778549,161.368851 135.472229,162.560379 139.640625,170.583420 
	C140.058914,171.388504 140.609665,172.134048 140.953049,172.967346 
	C145.225052,183.333984 149.378494,193.750458 153.743759,204.077454 
	C160.043167,218.980148 166.783966,233.703140 172.780548,248.724731 
	C177.338821,260.143341 176.953705,260.297058 189.134903,260.296692 
	C189.468094,260.296692 189.803589,260.270966 190.134140,260.300537 
	C195.768585,260.804108 200.619492,260.466217 201.524460,253.067459 
	C201.848312,250.419891 203.745163,247.964722 205.097992,244.645355 
M147.595276,133.084793 
	C151.883270,129.514786 156.110657,125.868462 160.478745,122.399307 
	C163.869461,119.706390 164.004150,116.480354 162.537399,112.836922 
	C156.652100,98.217789 150.795853,83.586784 144.850433,68.992126 
	C142.916763,64.245369 140.743805,59.596073 138.691895,54.928574 
	C133.892456,56.878048 129.796661,58.621628 125.642220,60.211990 
	C117.839973,63.198761 110.129745,66.530899 102.129700,68.852646 
	C98.004761,70.049767 98.508713,72.335037 99.409096,74.726685 
	C100.887169,78.652824 103.145531,82.278099 104.760788,86.160912 
	C112.938721,105.819321 120.980034,125.534775 129.253845,145.152374 
	C129.592239,145.954697 132.417282,146.735672 133.011932,146.240189 
	C137.846161,142.212250 142.424515,137.877228 147.595276,133.084793 
M245.029053,248.681274 
	C245.029053,251.303452 245.029053,253.925613 245.029053,256.669098 
	C281.730804,256.669098 318.070312,256.669098 354.436432,256.669098 
	C354.436432,252.767914 354.436432,249.211258 354.436432,244.881882 
	C350.495911,244.881882 346.867554,245.030792 343.255066,244.854797 
	C330.994659,244.257462 323.825439,237.066055 322.771301,224.775635 
	C322.153290,217.570465 321.197632,210.394257 320.349335,202.806870 
	C316.020294,204.132568 311.483063,205.485809 306.968964,206.912338 
	C298.810883,209.490417 290.768799,212.534454 282.474579,214.542358 
	C278.157959,215.587341 277.648773,218.123306 277.329437,221.440765 
	C277.201996,222.764572 277.159210,224.096405 277.071289,225.424149 
	C276.620209,232.234818 273.859772,237.679382 267.751068,241.129654 
	C261.927399,244.418930 255.560699,245.101776 249.028854,245.070633 
	C247.176010,245.061783 244.732346,244.412415 245.029053,248.681274 
M107.499863,257.003845 
	C114.587166,257.003845 121.674469,257.003845 128.599899,257.003845 
	C128.599899,252.690872 128.599899,249.101532 128.599899,244.843826 
	C124.508728,244.843826 120.621887,245.376160 116.943291,244.727509 
	C110.300575,243.556183 103.135582,242.623734 100.113846,235.126770 
	C98.714363,231.654633 97.688431,227.975250 96.977180,224.296249 
	C96.011139,219.299271 97.063812,213.155609 94.495010,209.377228 
	C88.544960,200.625443 80.939445,192.999146 73.325836,184.124695 
	C73.165649,186.659683 73.050461,188.214355 72.971733,189.770889 
	C72.330116,202.456985 72.072731,215.177902 70.918968,227.817062 
	C70.209839,235.585281 65.181610,241.873978 56.936893,243.130447 
	C51.140556,244.013809 45.351753,244.946579 39.353271,245.889740 
	C39.353271,249.329147 39.353271,253.039703 39.353271,257.003845 
	C61.935421,257.003845 84.217682,257.003845 107.499863,257.003845 
M89.072899,73.617584 
	C83.851830,75.769470 78.630753,77.921364 73.236580,80.144592 
	C73.200241,80.344864 73.035049,80.831726 73.034584,81.318748 
	C73.009605,107.464043 72.993980,133.609344 73.003799,159.754639 
	C73.004166,160.724625 72.916847,162.005417 73.460373,162.617233 
	C80.248299,170.258072 87.145409,177.801895 94.715729,186.143280 
	C94.715729,147.324020 94.715729,109.607712 94.715729,71.980659 
	C92.767662,72.471756 91.255478,72.852966 89.072899,73.617584 
M73.496284,67.034439 
	C82.359856,64.163338 91.261299,61.403191 100.077614,58.393639 
	C111.639809,54.446743 123.134865,50.303150 135.348053,46.001385 
	C133.737839,41.848656 132.098740,37.621422 130.443817,33.353397 
	C101.301476,33.353397 72.262558,33.353397 43.063805,33.353397 
	C43.063805,37.325451 43.063805,41.041714 43.063805,45.108440 
	C45.486050,45.108440 47.671738,44.819115 49.754757,45.159008 
	C58.329910,46.558235 66.614830,48.444405 69.419640,58.508644 
	C70.223465,61.392910 71.560799,64.128494 73.496284,67.034439 
M265.648041,50.911461 
	C277.908722,52.359577 290.184540,53.692436 302.423798,55.303398 
	C308.746521,56.135609 314.985992,57.599888 321.308319,58.436771 
	C322.443024,58.586971 324.305634,57.371883 324.965057,56.268787 
	C327.960480,51.258087 331.537476,47.396572 337.798523,46.680504 
	C342.133423,46.184727 346.403992,45.126678 350.720886,44.316566 
	C350.720886,40.795822 350.720886,37.070736 350.720886,33.097061 
	C323.441620,33.097061 296.499573,33.058746 269.558502,33.200993 
	C268.085510,33.208771 265.980164,34.361309 265.278931,35.606129 
	C263.580719,38.620739 262.324524,41.938683 261.296753,45.260174 
	C260.407562,48.133900 260.152405,51.133743 265.648041,50.911461 
z"/>
<path fill="#020202" opacity="1.000000" stroke="none" 
	d="
M246.048187,140.864380 
	C242.226837,136.686554 238.911697,132.419296 235.350159,128.368683 
	C231.943466,124.494202 231.036911,120.596275 233.246292,115.663559 
	C237.357788,106.484146 241.146210,97.155052 244.875443,87.810974 
	C247.791290,80.504951 250.290787,73.031219 253.284348,65.759232 
	C253.807587,64.488167 255.942764,62.945290 257.195923,63.057919 
	C267.309509,63.966923 277.390137,65.242607 287.481018,66.404480 
	C288.470642,66.518425 289.459808,66.642654 290.452332,66.723625 
	C300.463043,67.540199 310.474365,68.348732 320.881958,69.191635 
	C320.881958,109.762337 320.881958,150.125549 320.881958,190.613861 
	C307.018219,194.815811 293.215240,198.999359 278.725311,203.391098 
	C278.725311,158.192276 278.725311,113.543076 278.725311,68.893875 
	C278.187561,68.739922 277.649780,68.585968 277.112030,68.432014 
	C275.077087,73.209206 273.016357,77.975601 271.012268,82.765686 
	C265.855194,95.091843 260.682037,107.411568 255.599930,119.768677 
	C253.319901,125.312584 251.299942,130.963272 249.035477,136.513885 
	C248.404526,138.060455 247.322006,139.422806 246.048187,140.864380 
z"/>
<path fill="#040404" opacity="1.000000" stroke="none" 
	d="
M205.011017,245.033539 
	C203.745163,247.964722 201.848312,250.419891 201.524460,253.067459 
	C200.619492,260.466217 195.768585,260.804108 190.134140,260.300537 
	C189.803589,260.270966 189.468094,260.296692 189.134903,260.296692 
	C176.953705,260.297058 177.338821,260.143341 172.780548,248.724731 
	C166.783966,233.703140 160.043167,218.980148 153.743759,204.077454 
	C149.378494,193.750458 145.225052,183.333984 140.953049,172.967346 
	C140.609665,172.134048 140.058914,171.388504 139.640625,170.583420 
	C135.472229,162.560379 135.778549,161.368851 142.708847,155.056274 
	C150.288055,148.152603 157.743973,141.113693 165.268616,134.149933 
	C168.409729,131.242950 169.603241,131.654953 171.162842,135.511948 
	C176.861664,149.605515 182.768036,163.615265 188.444366,177.717712 
	C191.571198,185.486145 194.395233,193.376434 197.448624,201.457504 
	C202.467270,200.998795 201.538177,196.177582 202.740112,193.517578 
	C207.714417,182.508987 212.098251,171.228424 216.524704,159.979187 
	C219.559921,152.265594 222.307892,144.438965 225.625656,135.469635 
	C229.765198,140.151718 233.059097,144.385666 236.873276,148.082886 
	C244.230026,155.214035 238.732056,161.909378 236.319000,168.497131 
	C232.859833,177.940781 228.741379,187.141769 224.961517,196.469498 
	C221.459396,205.111771 218.064148,213.797348 214.561447,222.439392 
	C212.063187,228.603210 209.476532,234.731369 206.902008,240.863968 
	C206.362045,242.150192 205.702469,243.386215 205.011017,245.033539 
z"/>
<path fill="#040404" opacity="1.000000" stroke="none" 
	d="
M147.338028,133.360260 
	C142.424515,137.877228 137.846161,142.212250 133.011932,146.240189 
	C132.417282,146.735672 129.592239,145.954697 129.253845,145.152374 
	C120.980034,125.534775 112.938721,105.819321 104.760788,86.160912 
	C103.145531,82.278099 100.887169,78.652824 99.409096,74.726685 
	C98.508713,72.335037 98.004761,70.049767 102.129700,68.852646 
	C110.129745,66.530899 117.839973,63.198761 125.642220,60.211990 
	C129.796661,58.621628 133.892456,56.878048 138.691895,54.928574 
	C140.743805,59.596073 142.916763,64.245369 144.850433,68.992126 
	C150.795853,83.586784 156.652100,98.217789 162.537399,112.836922 
	C164.004150,116.480354 163.869461,119.706390 160.478745,122.399307 
	C156.110657,125.868462 151.883270,129.514786 147.338028,133.360260 
z"/>
<path fill="#040404" opacity="1.000000" stroke="none" 
	d="
M245.031586,248.209167 
	C244.732346,244.412415 247.176010,245.061783 249.028854,245.070633 
	C255.560699,245.101776 261.927399,244.418930 267.751068,241.129654 
	C273.859772,237.679382 276.620209,232.234818 277.071289,225.424149 
	C277.159210,224.096405 277.201996,222.764572 277.329437,221.440765 
	C277.648773,218.123306 278.157959,215.587341 282.474579,214.542358 
	C290.768799,212.534454 298.810883,209.490417 306.968964,206.912338 
	C311.483063,205.485809 316.020294,204.132568 320.349335,202.806870 
	C321.197632,210.394257 322.153290,217.570465 322.771301,224.775635 
	C323.825439,237.066055 330.994659,244.257462 343.255066,244.854797 
	C346.867554,245.030792 350.495911,244.881882 354.436432,244.881882 
	C354.436432,249.211258 354.436432,252.767914 354.436432,256.669098 
	C318.070312,256.669098 281.730804,256.669098 245.029053,256.669098 
	C245.029053,253.925613 245.029053,251.303452 245.031586,248.209167 
z"/>
<path fill="#040404" opacity="1.000000" stroke="none" 
	d="
M106.999908,257.003845 
	C84.217682,257.003845 61.935421,257.003845 39.353271,257.003845 
	C39.353271,253.039703 39.353271,249.329147 39.353271,245.889740 
	C45.351753,244.946579 51.140556,244.013809 56.936893,243.130447 
	C65.181610,241.873978 70.209839,235.585281 70.918968,227.817062 
	C72.072731,215.177902 72.330116,202.456985 72.971733,189.770889 
	C73.050461,188.214355 73.165649,186.659683 73.325836,184.124695 
	C80.939445,192.999146 88.544960,200.625443 94.495010,209.377228 
	C97.063812,213.155609 96.011139,219.299271 96.977180,224.296249 
	C97.688431,227.975250 98.714363,231.654633 100.113846,235.126770 
	C103.135582,242.623734 110.300575,243.556183 116.943291,244.727509 
	C120.621887,245.376160 124.508728,244.843826 128.599899,244.843826 
	C128.599899,249.101532 128.599899,252.690872 128.599899,257.003845 
	C121.674469,257.003845 114.587166,257.003845 106.999908,257.003845 
z"/>
<path fill="#010101" opacity="1.000000" stroke="none" 
	d="
M89.408096,73.425880 
	C91.255478,72.852966 92.767662,72.471756 94.715729,71.980659 
	C94.715729,109.607712 94.715729,147.324020 94.715729,186.143280 
	C87.145409,177.801895 80.248299,170.258072 73.460373,162.617233 
	C72.916847,162.005417 73.004166,160.724625 73.003799,159.754639 
	C72.993980,133.609344 73.009605,107.464043 73.034584,81.318748 
	C73.035049,80.831726 73.200241,80.344864 73.236580,80.144592 
	C78.630753,77.921364 83.851830,75.769470 89.408096,73.425880 
z"/>
<path fill="#070707" opacity="1.000000" stroke="none" 
	d="
M73.074890,66.983345 
	C71.560799,64.128494 70.223465,61.392910 69.419640,58.508644 
	C66.614830,48.444405 58.329910,46.558235 49.754757,45.159008 
	C47.671738,44.819115 45.486050,45.108440 43.063805,45.108440 
	C43.063805,41.041714 43.063805,37.325451 43.063805,33.353397 
	C72.262558,33.353397 101.301476,33.353397 130.443817,33.353397 
	C132.098740,37.621422 133.737839,41.848656 135.348053,46.001385 
	C123.134865,50.303150 111.639809,54.446743 100.077614,58.393639 
	C91.261299,61.403191 82.359856,64.163338 73.074890,66.983345 
z"/>
<path fill="#080808" opacity="1.000000" stroke="none" 
	d="
M265.203339,50.875381 
	C260.152405,51.133743 260.407562,48.133900 261.296753,45.260174 
	C262.324524,41.938683 263.580719,38.620739 265.278931,35.606129 
	C265.980164,34.361309 268.085510,33.208771 269.558502,33.200993 
	C296.499573,33.058746 323.441620,33.097061 350.720886,33.097061 
	C350.720886,37.070736 350.720886,40.795822 350.720886,44.316566 
	C346.403992,45.126678 342.133423,46.184727 337.798523,46.680504 
	C331.537476,47.396572 327.960480,51.258087 324.965057,56.268787 
	C324.305634,57.371883 322.443024,58.586971 321.308319,58.436771 
	C314.985992,57.599888 308.746521,56.135609 302.423798,55.303398 
	C290.184540,53.692436 277.908722,52.359577 265.203339,50.875381 
z"/>
</svg>